<svg xmlns="http://www.w3.org/2000/svg" version="1.1" xmlns:xlink="http://www.w3.org/1999/xlink" xmlns:svgjs="http://svgjs.dev/svgjs" width="1000" height="1125" viewBox="0 0 1000 1125"><g transform="matrix(1,0,0,1,1.7053025658242404e-13,0)"><svg viewBox="0 0 320 360" data-background-color="#09051a" preserveAspectRatio="xMidYMid meet" height="1125" width="1000" xmlns="http://www.w3.org/2000/svg" xmlns:xlink="http://www.w3.org/1999/xlink"><g id="tight-bounds" transform="matrix(1,0,0,1,0,0)"><svg viewBox="0 0 320 360" height="360" width="320"><g><svg></svg></g><g><svg viewBox="0 0 320 360" height="360" width="320"><g><path xmlns="http://www.w3.org/2000/svg" d="M20.961 227.22l3.726 4.658-1.863-6.056c-0.466-2.795-3.726 0.466-1.863 1.398M25.153 224.425c1.397 2.329 2.795 4.658 2.795 6.987 0 3.261 2.795 4.658 5.123 5.589-3.261-3.726-5.124-13.974-7.918-12.576M204.017 26.929c7.918 0 15.371-0.932 23.756 0.931 20.495 5.124 37.729 15.371 49.374 29.811l32.606 52.169c1.397 13.042 4.192 27.482 3.726 43.319 3.261 0 2.795-4.658 6.521-5.59-3.726 9.316-5.59 20.961-6.521 34.469-2.329-7.453 0-18.632 0.466-24.687-3.261 5.124-5.124 1.397-5.124-0.932 0.466-3.726-1.397-3.261-2.795-4.658-5.124-4.658-8.384-9.782-12.11-17.7 2.329-6.055 2.795-14.905-4.658-19.563-2.329-1.397-5.124-3.726-6.521-7.453-1.863-5.124-5.124-11.179-4.193-19.097 0.466-2.329-6.987 5.124-11.179 1.863-18.166-12.576-36.332-27.016-58.224-39.127-11.645 0-20.029-4.192-24.221-9.316-3.726-4.658-0.932-10.713 4.658-11.179 3.261 0 6.987-0.932 9.782 0.932 0.466-1.863 2.329-4.192 4.657-4.192M157.904 16.215l0.932 0.466c4.658 0.932 6.987 7.453 12.11 5.124 0 3.261 0.466 6.521-0.466 8.85-1.397 3.726-5.59 3.726-8.85 3.726-31.208-1.863-49.374 11.179-68.471 22.358-5.124 3.261-10.713 5.59-14.906 9.782-20.029 18.632-41.921 35.866-47.045 70.335l-4.192 38.195c-0.466 4.192-5.124 8.384-4.192 13.508l3.26 22.824c-3.261-3.261-5.124 0.932-4.192 2.795 0.466 1.397 2.329 6.055 5.124 1.863 3.726 6.987 7.453 20.495 12.576 26.55 15.837 18.632 36.332 35.4 53.101 52.169 4.192-0.932 7.453-0.932 8.384-3.727 1.397 2.795-1.397 5.59-3.726 6.056 7.453 4.658 15.837 8.85 27.016 9.781 14.44 0.932 27.948 3.261 40.524 6.522 6.521-1.863 13.042-2.795 20.029-3.261 2.329 0 3.726-3.726 6.521-4.658l0.466-4.658c2.795 4.192 2.329-1.397 0.466-4.192 3.261 2.795 4.192 5.124 5.589 6.987 0-1.397 3.726-6.521 3.727-0.466l0.931-6.055c1.397-0.932 1.863 5.124 3.261 0.931 1.397-4.192 4.192-0.932 6.987-2.329-0.932 1.863-0.466 5.59 2.794 3.261l3.727-3.261c2.329 5.59 6.055 3.261 7.918 2.329 20.495-13.042 40.99-28.413 60.553-43.784l-0.466 6.055 2.329-7.453c2.329 2.329 4.192 0.466 5.124-0.931 2.795-4.658 6.521-9.316 12.577-13.508-7.453 20.029-16.303 35.866-27.482 48.908l-4.658 5.59c0 3.261-0.932 7.453-4.658 7.918-1.863 0.466-5.59-0.932-8.384 1.863-1.397 1.863 3.261 5.59-0.466 2.795-3.261-2.329-6.521 0-10.248 0.932-2.795 0.932 1.863 3.726 2.795 5.589 0.932 1.863 1.863 3.726 1.398 6.056l-5.124-5.59c-6.055 3.261-9.782 9.316-14.906 13.974-2.329 1.863-1.397 5.124-1.397 7.918-3.261 0-6.987-0.932-8.85 0.932-1.397 1.863-0.932 4.658-0.932 7.453-4.658-0.466-5.124-7.453-9.315-6.056-4.192 0.932-8.85 1.397-12.577 3.727 2.795 5.59-4.658 2.329-3.726 3.26-6.987-4.192-13.042-7.453-20.495-4.658-15.837-5.124-35.4-2.795-49.84-0.931 0-2.329 0.466-4.658-0.466-5.124-0.932 2.329-3.726 1.397-3.26 1.397-8.85-6.055-17.7-9.782-27.016-14.905-8.384 0.932-16.303-3.261-18.632-5.59-6.521-6.055-13.974-2.795-20.029-4.192-13.042-3.261-17.7-16.769-19.098-26.084-0.932-4.658-4.658-6.521-6.055-6.056-6.055-19.563-15.371-37.263-22.824-55.429-1.863-4.658-1.397-9.316-1.397-14.44 2.329 0.932 4.658 0.466 4.192-2.794-2.329-15.371-7.918-27.016-13.974-38.195 3.261-15.837 3.726-34.469 11.179-48.443 6.521-12.576 18.632-19.098 27.016-29.811 2.795-3.726 2.795-8.85 5.59-12.11 9.316-9.316 18.632-19.098 28.879-27.482 4.658-3.726 10.247 0 17.234-1.397 2.329-8.384 11.645-15.837 20.495-13.508 3.726 0.932 11.179-8.85 13.508-9.782 3.726-1.397 1.863 3.726 1.863 6.987 8.85-6.987 20.961-10.713 32.14-14.906" fill="#ff0000" fill-rule="nonzero" stroke="none" stroke-width="1" stroke-linecap="butt" stroke-linejoin="miter" stroke-miterlimit="10" stroke-dasharray="" stroke-dashoffset="0" font-family="none" font-weight="none" font-size="none" text-anchor="none" style="mix-blend-mode: normal" data-fill-palette-color="tertiary"></path></g><g transform="matrix(1,0,0,1,64,163.0440371340157)"><svg viewBox="0 0 192 33.91192573196858" height="33.91192573196858" width="192"><g><svg viewBox="0 0 192 33.91192573196858" height="33.91192573196858" width="192"><g><svg viewBox="0 0 192 33.91192573196858" height="33.91192573196858" width="192"><g><svg viewBox="0 0 192 33.91192573196858" height="33.91192573196858" width="192"><g id="textblocktransform"><svg viewBox="0 0 192 33.91192573196858" height="33.91192573196858" width="192" id="textblock"><g><svg viewBox="0 0 192 33.91192573196858" height="33.91192573196858" width="192"><g transform="matrix(1,0,0,1,0,0)"><svg width="192" viewBox="3.6500000953674316 -36.5 210.04000854492188 37.099998474121094" height="33.91192573196858" data-palette-color="#ff0000"><path d="M8.25 0L3.65 0 3.65-36.5 8.25-36.5 8.25 0ZM27.5 0.6L27.5 0.6Q24.05 0.6 21.32-0.83 18.6-2.25 17.07-4.8 15.55-7.35 15.55-10.75L15.55-10.75 15.55-25.5 20.2-25.5 20.2-10.8Q20.2-8.5 21.2-6.83 22.2-5.15 23.87-4.25 25.55-3.35 27.45-3.35L27.45-3.35Q29.4-3.35 31.07-4.25 32.75-5.15 33.77-6.83 34.8-8.5 34.8-10.8L34.8-10.8 34.8-25.5 39.45-25.5 39.45-10.75Q39.45-7.35 37.9-4.8 36.35-2.25 33.65-0.83 30.95 0.6 27.5 0.6ZM51.35 0L46.75 0 46.75-14.75Q46.75-18.15 48.27-20.7 49.8-23.25 52.5-24.68 55.2-26.1 58.65-26.1L58.65-26.1Q62.15-26.1 64.82-24.68 67.5-23.25 69.02-20.7 70.55-18.15 70.55-14.75L70.55-14.75 70.55 0 65.95 0 65.95-14.7Q65.95-17 64.92-18.68 63.9-20.35 62.22-21.25 60.55-22.15 58.65-22.15L58.65-22.15Q56.75-22.15 55.07-21.25 53.4-20.35 52.37-18.68 51.35-17 51.35-14.7L51.35-14.7 51.35 0ZM88.44 0.6L88.44 0.6Q84.74 0.6 82.04-1.18 79.34-2.95 77.89-6 76.44-9.05 76.44-12.75L76.44-12.75Q76.44-16.5 78.04-19.53 79.64-22.55 82.64-24.33 85.64-26.1 89.84-26.1L89.84-26.1Q93.89-26.1 96.79-24.35 99.69-22.6 101.27-19.6 102.84-16.6 102.84-12.9L102.84-12.9 102.84 0 98.19 0 98.19-5.2 98.09-5.2Q97.34-3.75 96.07-2.43 94.79-1.1 92.89-0.25 90.99 0.6 88.44 0.6ZM89.64-3.35L89.64-3.35Q92.14-3.35 94.07-4.58 95.99-5.8 97.07-7.98 98.14-10.15 98.14-12.85L98.14-12.85Q98.14-15.5 97.12-17.6 96.09-19.7 94.19-20.93 92.29-22.15 89.74-22.15L89.74-22.15Q87.04-22.15 85.12-20.9 83.19-19.65 82.17-17.53 81.14-15.4 81.14-12.7L81.14-12.7Q81.14-10.1 82.14-7.98 83.14-5.85 85.04-4.6 86.94-3.35 89.64-3.35ZM118.69 0.6L118.69 0.6Q116.29 0.6 114.37-0.33 112.44-1.25 111.29-3.23 110.14-5.2 110.14-8.3L110.14-8.3 110.14-25.5 114.74-25.5 114.74-7.5Q114.74-6.15 115.29-5.2 115.84-4.25 116.74-3.8 117.64-3.35 118.64-3.35L118.64-3.35Q119.64-3.35 120.54-3.83 121.44-4.3 122.02-5.23 122.59-6.15 122.59-7.5L122.59-7.5 122.59-17.4Q122.59-20.35 123.69-22.28 124.79-24.2 126.69-25.15 128.59-26.1 130.99-26.1L130.99-26.1Q133.39-26.1 135.29-25.15 137.19-24.2 138.29-22.28 139.39-20.35 139.39-17.4L139.39-17.4 139.39-7.5Q139.39-6.15 139.94-5.23 140.49-4.3 141.39-3.83 142.29-3.35 143.34-3.35L143.34-3.35Q144.39-3.35 145.24-3.83 146.09-4.3 146.64-5.23 147.19-6.15 147.19-7.5L147.19-7.5 147.19-25.5 151.84-25.5 151.84-8.3Q151.84-5.2 150.69-3.23 149.54-1.25 147.62-0.33 145.69 0.6 143.34 0.6L143.34 0.6Q141.04 0.6 139.09-0.33 137.14-1.25 135.97-3.23 134.79-5.2 134.79-8.3L134.79-8.3 134.79-18.1Q134.79-19.5 134.24-20.4 133.69-21.3 132.84-21.73 131.99-22.15 130.99-22.15L130.99-22.15Q129.99-22.15 129.12-21.73 128.24-21.3 127.72-20.4 127.19-19.5 127.19-18.1L127.19-18.1 127.19-8.3Q127.19-5.2 126.02-3.23 124.84-1.25 122.92-0.33 120.99 0.6 118.69 0.6ZM178.64 0L172.09 0Q167.89 0 164.64-1.58 161.39-3.15 159.56-6.03 157.74-8.9 157.74-12.75L157.74-12.75Q157.74-16.55 159.29-19.58 160.84-22.6 163.59-24.35 166.34-26.1 169.99-26.1L169.99-26.1Q173.94-26.1 176.56-24.4 179.19-22.7 180.49-19.83 181.79-16.95 181.79-13.4L181.79-13.4Q181.79-12.85 181.76-12.25 181.74-11.65 181.64-11.2L181.64-11.2 162.64-11.2Q162.89-8.85 164.19-7.23 165.49-5.6 167.51-4.78 169.54-3.95 171.99-3.95L171.99-3.95 178.64-3.95 178.64 0ZM162.59-14.45L162.59-14.45 177.14-14.45Q177.14-15.4 176.94-16.48 176.74-17.55 176.24-18.57 175.74-19.6 174.91-20.43 174.09-21.25 172.86-21.75 171.64-22.25 169.99-22.25L169.99-22.25Q168.24-22.25 166.91-21.58 165.59-20.9 164.64-19.78 163.69-18.65 163.19-17.25 162.69-15.85 162.59-14.45ZM200.54 0.6L200.54 0.6Q196.84 0.6 193.89-1 190.94-2.6 189.21-5.63 187.49-8.65 187.49-12.9L187.49-12.9 187.49-36.5 192.09-36.5 192.09-20.95 192.19-20.95Q193.04-22.5 194.41-23.65 195.79-24.8 197.56-25.45 199.34-26.1 201.29-26.1L201.29-26.1Q204.84-26.1 207.64-24.5 210.44-22.9 212.06-19.98 213.69-17.05 213.69-13.05L213.69-13.05Q213.69-9.9 212.71-7.38 211.74-4.85 209.99-3.05 208.24-1.25 205.84-0.33 203.44 0.6 200.54 0.6ZM200.54-3.35L200.54-3.35Q202.89-3.35 204.81-4.5 206.74-5.65 207.89-7.75 209.04-9.85 209.04-12.75L209.04-12.75Q209.04-15.55 207.91-17.65 206.79-19.75 204.89-20.95 202.99-22.15 200.59-22.15L200.59-22.15Q198.24-22.15 196.31-21 194.39-19.85 193.26-17.73 192.14-15.6 192.14-12.7L192.14-12.7Q192.14-9.85 193.26-7.75 194.39-5.65 196.31-4.5 198.24-3.35 200.54-3.35Z" opacity="1" transform="matrix(1,0,0,1,0,0)" fill="#ff0000" class="undefined-text-0" data-fill-palette-color="primary" id="text-0"></path></svg></g></svg></g></svg></g></svg></g><g></g></svg></g></svg></g></svg></g></svg></g><defs></defs></svg><rect width="320" height="360" fill="none" stroke="none" visibility="hidden"></rect></g></svg></g></svg>